<svg xmlns="http://www.w3.org/2000/svg" width="512" height="512" viewBox="0 0 512 512" fill="none">
  <rect width="512" height="512" rx="56" fill="#F8FAFC"/>
  <circle cx="256" cy="256" r="180" fill="#EEF4FF"/>
  <rect x="164" y="88" width="184" height="336" rx="34" fill="#0F172A"/>
  <rect x="176" y="104" width="160" height="304" rx="24" fill="white"/>
  <rect x="214" y="120" width="84" height="10" rx="5" fill="#CBD5E1"/>
  <rect x="196" y="156" width="120" height="92" rx="20" fill="#EFF6FF"/>
  <path d="M256 170c-24 0-44 20-44 44h22c0-12 10-22 22-22s22 10 22 22c0 8-4 13-12 19-11 8-24 18-24 36h22c0-7 4-11 12-16 12-8 24-20 24-39 0-24-20-44-44-44z" fill="#2563EB"/>
  <circle cx="256" cy="278" r="11" fill="#2563EB"/>
  <rect x="196" y="290" width="120" height="64" rx="18" fill="#F8FAFC" stroke="#DDE7F5"/>
  <circle cx="226" cy="322" r="16" fill="#22C55E"/>
  <path d="M220 322l4 4 9-10" stroke="white" stroke-width="4" stroke-linecap="round" stroke-linejoin="round"/>
  <rect x="250" y="312" width="42" height="8" rx="4" fill="#0F172A"/>
  <rect x="250" y="328" width="32" height="8" rx="4" fill="#64748B"/>
  <circle cx="396" cy="176" r="44" fill="white" stroke="#DDE7F5"/>
  <path d="M396 150v28l16 10" stroke="#2563EB" stroke-width="8" stroke-linecap="round" stroke-linejoin="round"/>
  <circle cx="396" cy="176" r="4" fill="#2563EB"/>
  <path d="M388 104h16M396 96v16" stroke="#22C55E" stroke-width="8" stroke-linecap="round"/>
  <circle cx="256" cy="388" r="9" fill="#CBD5E1"/>
</svg>