<svg xmlns="http://www.w3.org/2000/svg" width="512" height="512" viewBox="0 0 512 512" fill="none">
  <rect width="512" height="512" rx="56" fill="#F8FAFC"/>
  <circle cx="256" cy="256" r="180" fill="#EEF4FF"/>
  <rect x="110" y="118" width="194" height="300" rx="30" fill="#0F172A"/>
  <rect x="122" y="132" width="170" height="272" rx="22" fill="white"/>
  <rect x="146" y="164" width="122" height="16" rx="8" fill="#D7E5FF"/>
  <rect x="146" y="198" width="86" height="12" rx="6" fill="#E2E8F0"/>
  <rect x="146" y="234" width="122" height="52" rx="16" fill="#F8FAFC" stroke="#DDE7F5"/>
  <circle cx="174" cy="260" r="18" fill="#2563EB"/>
  <path d="M174 250v20M164 260h20" stroke="white" stroke-width="4" stroke-linecap="round"/>
  <rect x="200" y="246" width="56" height="8" rx="4" fill="#0F172A" opacity=".9"/>
  <rect x="200" y="262" width="40" height="8" rx="4" fill="#64748B"/>
  <rect x="146" y="302" width="122" height="52" rx="16" fill="#F8FAFC" stroke="#DDE7F5"/>
  <circle cx="174" cy="328" r="18" fill="#22C55E"/>
  <path d="M166 328l6 6 12-14" stroke="white" stroke-width="4" stroke-linecap="round" stroke-linejoin="round"/>
  <rect x="200" y="314" width="56" height="8" rx="4" fill="#0F172A" opacity=".9"/>
  <rect x="200" y="330" width="40" height="8" rx="4" fill="#64748B"/>
  <rect x="330" y="154" width="76" height="76" rx="22" fill="white" stroke="#DDE7F5"/>
  <circle cx="368" cy="192" r="22" fill="#2563EB" fill-opacity=".12"/>
  <circle cx="368" cy="192" r="15" stroke="#2563EB" stroke-width="6"/>
  <path d="M379 203l18 18" stroke="#2563EB" stroke-width="6" stroke-linecap="round"/>
  <rect x="324" y="270" width="88" height="96" rx="24" fill="white" stroke="#DDE7F5"/>
  <path d="M352 296h32M368 280v32" stroke="#22C55E" stroke-width="8" stroke-linecap="round"/>
  <rect x="340" y="336" width="56" height="10" rx="5" fill="#D7E5FF"/>
</svg>